# xmcd
# 
# Track frame offsets:
#     150
#     22137
#     42410
# 
# Disc length: 875
# 
# Revision: 1
# Processed by: cddbd v1.5.2PL0 Copyright (c) Steve Scherf et al.
# Submitted via: fre:ac v1.0.17
# 
DISCID=22036903
DTITLE=Led Zeppelin - Whole Lotta Love
DYEAR=1997
DGENRE=Rock
TTITLE0=Whole Lotta Love (edit)
TTITLE1=Baby Come On Home
TTITLE2=Travelling Riverside Blues
EXTD=
EXTT0=
EXTT1=
EXTT2=
PLAYORDER=
